<?xml version="1.0" encoding="UTF-8" standalone="no"?>
<!-- Generator: Adobe Illustrator 14.0.0, SVG Export Plug-In . SVG Version: 6.00 Build 43363)  -->

<svg
   xmlns:dc="http://purl.org/dc/elements/1.1/"
   xmlns:cc="http://creativecommons.org/ns#"
   xmlns:rdf="http://www.w3.org/1999/02/22-rdf-syntax-ns#"
   xmlns:svg="http://www.w3.org/2000/svg"
   xmlns="http://www.w3.org/2000/svg"
   xmlns:sodipodi="http://sodipodi.sourceforge.net/DTD/sodipodi-0.dtd"
   xmlns:inkscape="http://www.inkscape.org/namespaces/inkscape"
   version="1.1"
   id="Layer_1"
   x="0px"
   y="0px"
   width="380"
   height="109"
   viewBox="0 0 380 109"
   enable-background="new 0 0 612 792"
   xml:space="preserve"
   inkscape:version="0.48.0 r9654"
   sodipodi:docname="ADI_Logo.svg"><metadata
   id="metadata11"><rdf:RDF><cc:Work
       rdf:about=""><dc:format>image/svg+xml</dc:format><dc:type
         rdf:resource="http://purl.org/dc/dcmitype/StillImage" /></cc:Work></rdf:RDF></metadata><defs
   id="defs9" /><sodipodi:namedview
   pagecolor="#ffffff"
   bordercolor="#666666"
   borderopacity="1"
   objecttolerance="10"
   gridtolerance="10"
   guidetolerance="10"
   inkscape:pageopacity="0"
   inkscape:pageshadow="2"
   inkscape:window-width="1280"
   inkscape:window-height="744"
   id="namedview7"
   showgrid="false"
   showborder="true"
   inkscape:showpageshadow="true"
   borderlayer="false"
   inkscape:zoom="0.33207071"
   inkscape:cx="306"
   inkscape:cy="396"
   inkscape:window-x="-4"
   inkscape:window-y="-4"
   inkscape:window-maximized="1"
   inkscape:current-layer="Layer_1" />
<g
   id="g3"
   transform="translate(-114.43346,-156.0038)">
	<path
   d="M 118.296,264.038 V 159.531 H 222.245 V 264.038 H 118.296 z m 21.392,-88.241 v 74.981 l 65.177,-38.326 -65.177,-36.655 z m 117.541,87.126 h -17.938 v -46.572 h 18.049 c 13.37,0 21.392,10.584 21.392,24.065 0,13.482 -7.13,22.507 -21.503,22.507 z m 15.933,-57.156 -3.565,-10.361 h -17.158 l -3.119,10.361 h -9.359 l 15.709,-46.682 h 9.47 l 17.603,46.682 h -9.581 z m -16.712,18.495 h -7.353 v 31.419 h 7.911 c 10.472,0 12.032,-8.913 11.921,-15.709 -10e-4,-5.348 -2.564,-15.71 -12.479,-15.71 z m 9.915,-38.215 -5.904,-17.157 -5.236,17.045 -0.334,2.897 h 11.586 c 0,-1.559 0.112,-1.894 -0.112,-2.785 z m 15.71,76.876 v -46.572 h 34.315 v 7.8 h -24.956 v 9.916 h 22.06 v 8.467 h -21.949 v 12.479 h 25.626 v 7.911 h -35.096 z m 32.31,-57.156 -20.5,-31.53 v 31.53 h -9.358 v -46.682 h 9.581 l 19.721,31.084 v -31.084 h 9.359 v 46.682 h -8.803 z m 29.303,57.044 h -8.914 l -15.375,-44.008 v -2.451 h 9.359 l 10.473,34.094 10.25,-33.981 h 9.136 v 2.45 l -14.929,43.896 z m 14.817,-57.044 -3.565,-10.361 h -17.158 l -3.118,10.361 h -9.359 l 15.709,-46.682 h 9.471 l 17.604,46.682 h -9.584 z m -6.685,-19.497 -5.904,-17.603 -5.905,17.603 v 2.563 h 11.81 0.223 c -10e-4,-1.56 -10e-4,-1.783 -0.224,-2.563 z m 9.693,76.541 v -46.347 h 9.916 v 46.347 h -9.916 z m 8.58,-57.044 v -46.682 h 9.247 v 38.772 h 20.834 v 7.91 h -30.081 z m 25.959,58.271 c -25.514,0.556 -29.97,-48.688 0.111,-48.355 16.713,0 19.609,13.928 20.278,16.044 h -9.248 c -1.449,-2.896 -5.236,-8.467 -9.916,-8.802 -16.489,-1.114 -16.489,33.76 0,33.76 7.911,0 9.805,-7.911 10.25,-8.802 h 9.024 c 0.001,0.111 -1.113,15.931 -20.499,16.155 z m 25.625,-57.49 c -29.97,0 -28.855,-48.354 0.335,-48.131 28.187,0.222 28.967,48.131 -0.335,48.131 z m -0.334,-7.8 c 17.269,0.111 17.269,-32.198 0.334,-32.421 -16.823,-0.112 -17.381,32.31 -0.334,32.421 z m -3.12,64.175 v -46.572 h 33.091 v 8.468 h -24.177 v 9.582 h 21.391 v 8.356 h -21.279 v 12.255 h 25.18 v 7.911 h -34.206 z m 62.838,-58.27 v -4.457 c -1.002,0.892 -5.458,6.573 -13.815,6.351 -28.522,-0.668 -28.634,-47.462 1.337,-48.02 7.242,0 13.258,4.568 15.598,7.799 2.785,3.677 3.01,6.796 3.121,7.576 h -7.911 c -1.783,-2.897 -4.567,-7.799 -11.141,-7.799 -17.381,-0.223 -18.495,32.644 -0.113,32.979 8.136,0.223 12.256,-8.244 12.256,-8.356 v -2.451 h -11.141 v -7.242 h 19.163 v 23.619 h -7.354 z m -8.691,59.495 c -19.72,0 -19.497,-15.152 -19.497,-15.152 h 8.914 c 0,0 -0.669,7.354 9.245,8.022 2.453,0.111 10.475,-0.892 10.475,-6.462 0,-6.462 -8.133,-6.128 -13.258,-7.577 -5.126,-1.336 -14.818,-3.565 -14.818,-12.589 0,-7.911 6.461,-14.708 18.939,-14.708 16.712,0.112 16.602,13.036 16.712,13.816 h -8.579 c -0.556,-1.894 -1.113,-6.461 -8.577,-6.685 -3.677,0 -9.248,1.225 -9.248,5.57 0,5.459 6.24,6.239 12.813,7.242 9.915,1.894 15.598,4.902 15.262,14.038 -0.222,8.023 -7.354,14.485 -18.383,14.485 z"
   id="path5"
   inkscape:connector-curvature="0" />
</g>
</svg>